{"asset":{"generator":"Khronos glTF Blender I/O v4.0.44","version":"2.0"},"scene":0,"scenes":[{"name":"Scene","nodes":[0]}],"nodes":[{"mesh":0,"name":"Prop_Barrel2_Closed"}],"materials":[{"doubleSided":true,"name":"MI_Props_Batch1","pbrMetallicRoughness":{"baseColorTexture":{"index":0},"metallicFactor":0.0,"roughnessFactor":1.0}}],"meshes":[{"name":"Cylinder.005","primitives":[{"attributes":{"POSITION":0,"NORMAL":1,"TEXCOORD_0":2},"indices":3,"material":0}]}],"textures":[{"sampler":0,"source":0}],"images":[{"mimeType":"image/png","name":"T_Props_Batch1_BaseColor","uri":"T_Props_Batch1_BaseColor.png"}],"accessors":[{"bufferView":0,"componentType":5126,"count":4128,"max":[0.2711021304130554,0.766112744808197,0.2711017429828644],"min":[-0.2711021304130554,-2.7140071523490406e-08,-0.2711021900177002],"type":"VEC3"},{"bufferView":1,"componentType":5126,"count":4128,"type":"VEC3"},{"bufferView":2,"componentType":5126,"count":4128,"type":"VEC2"},{"bufferView":3,"componentType":5123,"count":12540,"type":"SCALAR"}],"bufferViews":[{"buffer":0,"byteLength":49536,"byteOffset":0,"target":34962},{"buffer":0,"byteLength":49536,"byteOffset":49536,"target":34962},{"buffer":0,"byteLength":33024,"byteOffset":99072,"target":34962},{"buffer":0,"byteLength":25080,"byteOffset":132096,"target":34963}],"samplers":[{"magFilter":9729,"minFilter":9987}],"buffers":[{"byteLength":157176,"uri":"Prop_Barrel2_Closed.bin"}]}